# xmcd CD database file
#
# Track frame offsets:
#	150
#	3657
#	6595
#	13955
#	16487
#	25400
#	31405
#	38557
#	45155
#	54840
#	63035
#	66212
#	71955
#	81250
#	82685
#	91880
#	97355
#	105400
#	114982
#	115907
#	118972
#	119977
#	129830
#	132282
#	138955
#	147647
#	151020
#	161020
#	164617
#	173220
#	178090
#	188097
#	189050
#	195365
#	198365
#	201480
#	202400
#	212257
#	219285
#	228480
#	239175
#
# Disc length: 3220 seconds
#
# Revision: 0
# Processed by: cddbd v1.5.2PL0 Copyright (c) Steve Scherf et al.
# Submitted via: CDex 1.51
#
DISCID=4d0c9229
DTITLE=Jim Reeves - The Jim Reeves Radio Show
DYEAR=2003
DGENRE=Country
TTITLE0=Introduction
TTITLE1=Jim Reeves: Thank you
TTITLE2=Jim Reeves: Everywhere you go
TTITLE3=Dialogue Jim Reeves and Dolores Watson
TTITLE4=Dolores Watson: The last song and dance
TTITLE5=Dialogue and weather report
TTITLE6=Owen Bradley Orchestra: Tower Trot
TTITLE7=Dialogue and Advertising
TTITLE8=Buddy Hall: All the way
TTITLE9=The Anita Kerr Singers: I´m available
TTITLE10=Outro
TTITLE11=Intro
TTITLE12=Dolores Watson: I´ll never say never again
TTITLE13=Dialogue
TTITLE14=Buddy Hall: Chances are
TTITLE15=Dialogue
TTITLE16=Owen Bradley Orchestra: The way you look tonight
TTITLE17=The Anita Kerr Singers: Promises
TTITLE18=Dialogue
TTITLE19=Jim Reeves: Count your blessings corner (Poem)
TTITLE20=Dialogue
TTITLE21=Jim Reeves: Need me
TTITLE22=Outro
TTITLE23=Intro
TTITLE24=Buddy Hall: Angel smile
TTITLE25=Dialogue
TTITLE26=The Anita Kerr Singers: No more tears to cry
TTITLE27=Dialogue and weather report
TTITLE28=Owen Bradley Orchestra: Stomping at the Savoy
TTITLE29=Dialogue
TTITLE30=Jim Reeves: Overnight
TTITLE31=Dialogue
TTITLE32=Dolores Watson: I got the world on a string
TTITLE33=Outro
TTITLE34=Intro
TTITLE35=Dialogue
TTITLE36=The Anita Kerr Singers: Somebody stole my gal
TTITLE37=Dialogue
TTITLE38=Owen Bradley Orchestra: Moonlight bay
TTITLE39=Jim Reeves: My happiness
TTITLE40=Outro
EXTD=YEAR: 2003
EXTT0=
EXTT1=
EXTT2=
EXTT3=
EXTT4=
EXTT5=
EXTT6=
EXTT7=
EXTT8=
EXTT9=
EXTT10=
EXTT11=
EXTT12=
EXTT13=
EXTT14=
EXTT15=
EXTT16=
EXTT17=
EXTT18=
EXTT19=
EXTT20=
EXTT21=
EXTT22=
EXTT23=
EXTT24=
EXTT25=
EXTT26=
EXTT27=
EXTT28=
EXTT29=
EXTT30=
EXTT31=
EXTT32=
EXTT33=
EXTT34=
EXTT35=
EXTT36=
EXTT37=
EXTT38=
EXTT39=
EXTT40=
PLAYORDER=
